<svg xmlns="http://www.w3.org/2000/svg" viewBox="0 0 425.5 304.5"><style>.st1{fill:#49c0d8}.st1,.st2,.st3{fill-rule:evenodd;clip-rule:evenodd}.st2{fill:#1dafc8}.st3{fill:#019bc1}</style><g id="Camada_1"><path d="M209.7 175.4c91.7 0 166.4-8.4 166.4-18.7 0-10.3-74.8-18.7-166.4-18.7-91.7 0-166.4 8.4-166.4 18.7 0 10.4 74.7 18.7 166.4 18.7z" fill-rule="evenodd" clip-rule="evenodd" fill="#b1dee4"/><path class="st1" d="M168.9 110.3L137.8 45l12 66.1z"/><path class="st2" d="M152.9 158.6H72.1l77.7-47.5z"/><path class="st2" d="M279.4 158.6v-22.1l-110.5-26.2-16 48.3z"/><path class="st3" d="M279.4 158.6v-22.1l39.4-53.1 19.5 75.2z"/><path d="M149.8 111.1l-12-66.1L72 158.6zm129.6 25.4L214.6 8.2l-45.7 102.1z" fill="#93d7ea" fill-rule="evenodd" clip-rule="evenodd"/><path class="st1" d="M318.8 83.4L214.6 8.2l64.8 128.3z"/><path class="st3" d="M168.9 110.3l-19.1.8 3.1 47.5z"/><path d="M10.3 199h10.8v64.2H10.3V199zm58 54.4c3.7 0 7-.6 9.6-1.9 2.7-1.3 5.5-3.3 8.5-6l7 7.2c-6.8 7.5-15.1 11.3-24.8 11.3-9.7 0-17.8-3.1-24.2-9.4-6.4-6.2-9.6-14.2-9.6-23.7 0-9.6 3.3-17.5 9.8-23.9 6.5-6.4 14.8-9.6 24.7-9.6 10 0 18.3 3.7 25 11l-6.9 7.5c-3.1-2.9-6-5-8.7-6.2-2.7-1.2-5.9-1.7-9.6-1.7-6.5 0-11.9 2.1-16.4 6.3-4.4 4.2-6.6 9.6-6.6 16.1 0 6.5 2.2 12 6.6 16.4 4.4 4.5 9.6 6.6 15.6 6.6zm83.5-54.4v10.2h-34.3v17h30.8v9.6h-30.8V253h35.4v10.2h-46.2V199h45.1zm43.1 64.3h-28.1V199h25c4.3 0 8.1.5 11.3 1.6 3.2 1 5.5 2.5 7 4.2 2.9 3.3 4.4 7 4.4 11.2 0 5-1.6 8.8-4.8 11.2-1.2.9-2 1.4-2.4 1.6-.4.2-1.2.6-2.3 1.1 4 .9 7.2 2.7 9.5 5.4 2.4 2.7 3.5 6.1 3.5 10.2 0 4.5-1.5 8.4-4.6 11.9-3.6 3.9-9.8 5.9-18.5 5.9zm-17.3-37.6h13.8c7.8 0 11.8-2.7 11.8-8 0-3.1-1-5.3-2.8-6.6-1.9-1.3-4.8-2-8.8-2h-13.9v16.6zm0 27.6h17c4 0 7-.6 9.1-1.9 2.1-1.3 3.2-3.6 3.2-7.1 0-5.7-4.6-8.5-13.7-8.5h-15.6v17.5zm99.2-54.3v10.2h-34.3v17h30.8v9.6h-30.8V253h35.4v10.2h-46.2V199h45.1zm66.2 20.9c0 10.6-4.6 17.3-13.9 20l16.8 23.3h-13.8l-15.3-21.6h-14.2v21.6h-10.8V199h23.9c9.8 0 16.8 1.7 21 5 4.2 3.3 6.3 8.6 6.3 15.9zm-14.4 9.1c2.2-1.9 3.3-4.9 3.3-9.1 0-4.2-1.1-7.1-3.4-8.6-2.3-1.6-6.3-2.3-12.1-2.3h-13.8v23h13.5c6.1-.2 10.3-1.1 12.5-3zm74.5 3H414v22c-6.1 6.7-14.7 10-26 10-9.5 0-17.4-3.1-23.8-9.4-6.4-6.2-9.6-14.2-9.6-23.7 0-9.6 3.3-17.5 9.8-23.9 6.5-6.4 14.4-9.6 23.7-9.6 9.3 0 16.9 2.7 23.1 8.1l-5.8 8.3c-2.5-2.1-5-3.6-7.6-4.5-2.5-.8-5.5-1.2-8.9-1.2-6.5 0-11.9 2.1-16.4 6.3-4.4 4.2-6.6 9.7-6.6 16.5 0 6.8 2.1 12.3 6.4 16.5 4.3 4.1 9.5 6.2 15.6 6.2s11.2-1.3 15.3-4V232z" fill="#1a1a1a"/><path d="M13.4 292.7l-1.5 3.4H9.2l6.6-14.9h2.7l6.6 14.9h-2.7l-1.5-3.4h-7.5zm6.4-2.3l-2.7-6.2-2.7 6.2h5.4zm38.7-7.2c-.7 0-1.3.1-1.8.4-.5.3-.7.8-.7 1.4 0 .6.2 1.1.7 1.4.5.3 1.5.7 3 1 1.5.4 2.7.9 3.5 1.6.8.7 1.2 1.7 1.2 3s-.5 2.4-1.5 3.2c-1 .8-2.3 1.2-3.9 1.2-2.3 0-4.4-.8-6.2-2.4l1.6-1.9c1.5 1.3 3.1 2 4.7 2 .8 0 1.5-.2 1.9-.5.5-.3.7-.8.7-1.4 0-.6-.2-1-.7-1.3-.4-.3-1.2-.6-2.3-.9-1.1-.3-1.9-.5-2.5-.7-.6-.2-1.1-.5-1.5-.9-.9-.7-1.3-1.7-1.3-3.1 0-1.4.5-2.4 1.5-3.2 1-.7 2.2-1.1 3.7-1.1 1 0 1.9.2 2.8.5.9.3 1.8.8 2.4 1.3l-1.3 1.9c-.4-.4-1-.7-1.8-1-.8-.4-1.5-.5-2.2-.5zm15.9-2h2.5v14.9h-2.5v-14.9zm16.2 14.9h-2.5v-14.9H92l4.5 9.4 4.5-9.4h3.9v14.9h-2.5v-11.7l-5.2 10.4h-1.4l-5.2-10.4v11.7zm35.5-13.6c1 .9 1.6 2.2 1.6 4 0 1.8-.5 3.1-1.6 4-1.1.8-2.7 1.3-4.9 1.3h-2.6v4.4H116v-14.9h5.1c2.3-.1 4 .3 5 1.2zm-1.8 6.2c.5-.5.8-1.3.8-2.3 0-1-.3-1.8-1-2.2-.6-.4-1.6-.6-3-.6h-2.6v6h2.9c1.5-.1 2.4-.4 2.9-.9zm13.3 7.4v-14.9h2.5v12.5h6.8v2.4h-9.3zm29.6-14.9v2.4h-8v4h7.2v2.2h-7.2v4h8.2v2.4h-10.7v-14.9h10.5zm36.9 14.9h-6.5v-14.9h5.8c1 0 1.9.1 2.6.4.7.2 1.3.6 1.6 1 .7.8 1 1.6 1 2.6 0 1.2-.4 2-1.1 2.6-.3.2-.5.3-.6.4-.1 0-.3.1-.5.2.9.2 1.7.6 2.2 1.2.5.6.8 1.4.8 2.4s-.4 2-1.1 2.8c-.7.9-2.2 1.3-4.2 1.3zm-4-8.7h3.2c1.8 0 2.7-.6 2.7-1.9 0-.7-.2-1.2-.7-1.5-.4-.3-1.1-.5-2.1-.5H200v3.9zm0 6.4h4c.9 0 1.6-.1 2.1-.4.5-.3.7-.8.7-1.7 0-1.3-1.1-2-3.2-2h-3.6v4.1zm32 .3c-1.5 1.5-3.4 2.2-5.6 2.2-2.2 0-4.1-.7-5.6-2.2-1.5-1.5-2.3-3.3-2.3-5.5s.8-4 2.3-5.5c1.5-1.5 3.4-2.2 5.6-2.2 2.2 0 4.1.7 5.6 2.2 1.5 1.5 2.3 3.3 2.3 5.5 0 2.1-.8 4-2.3 5.5zm-1.8-9.4c-1-1.1-2.3-1.6-3.7-1.6-1.5 0-2.7.5-3.7 1.6s-1.5 2.3-1.5 3.8.5 2.8 1.5 3.8c1 1.1 2.3 1.6 3.7 1.6 1.5 0 2.7-.5 3.7-1.6s1.5-2.3 1.5-3.8-.5-2.7-1.5-3.8zm14.3-3.5h2.5v14.9h-2.5v-14.9zm13.6 14.9v-14.9h2.5v12.5h6.8v2.4h-9.3zm29.6-14.9v2.4h-8v4h7.2v2.2h-7.2v4h8.2v2.4h-10.7v-14.9h10.5zm22.4 4.8c0 2.5-1.1 4-3.2 4.7l3.9 5.4h-3.2l-3.6-5h-3.3v5h-2.5v-14.9h5.6c2.3 0 3.9.4 4.9 1.2.9.7 1.4 1.9 1.4 3.6zm-3.4 2.1c.5-.4.8-1.1.8-2.1s-.3-1.6-.8-2c-.5-.4-1.5-.5-2.8-.5h-3.2v5.3h3.1c1.4 0 2.4-.2 2.9-.7zm24.1-5.6c1 .9 1.6 2.2 1.6 4 0 1.8-.5 3.1-1.6 4-1.1.8-2.7 1.3-4.9 1.3h-2.6v4.4h-2.5v-14.9h5.1c2.2-.1 3.8.3 4.9 1.2zm-1.8 6.2c.5-.5.8-1.3.8-2.3 0-1-.3-1.8-1-2.2-.6-.4-1.6-.6-3-.6h-2.6v6h2.9c1.4-.1 2.4-.4 2.9-.9zm13.3 7.4v-14.9h2.5v12.5h6.8v2.4h-9.3zm21.2-3.4l-1.5 3.4h-2.7l6.6-14.9h2.7l6.6 14.9h-2.7l-1.5-3.4h-7.5zm6.5-2.3l-2.7-6.2-2.7 6.2h5.4zm18.7-6.9v12.6h-2.5v-12.6h-4.5v-2.3h11.6v2.3h-4.6zm24.7-2.3v2.4h-8v4h7.2v2.2h-7.2v4h8.2v2.4H403v-14.9h10.5z" fill="gray"/></g></svg>