<svg version="1" xmlns="http://www.w3.org/2000/svg" width="2528" height="2528" viewBox="0 0 1896.000000 1896.000000"><path d="M959.4 276.7c-1.4 3.2-5.2 11.6-8.4 18.8-4.9 11.1-21 47.1-29.3 65.5-1.3 3-4.4 9.8-6.7 15-2.3 5.2-5 11.3-6 13.5-1 2.2-7.4 16.6-14.3 32-6.8 15.4-15.5 34.7-19.2 43-3.7 8.2-7.5 16.8-8.5 19-1 2.2-9.2 20.6-18.3 41-18.7 42-21.2 47.6-23.4 52.5-.9 1.9-8.4 18.6-16.6 37-8.2 18.4-17.8 40-21.4 48-3.6 8-13.7 30.7-22.5 50.5s-16.3 36.3-16.7 36.7c-.4.4-.7 0-.8-1-.1-.9-3.8-9.4-8.3-18.7-4.5-9.4-9.6-20.2-11.5-24-1.8-3.9-7-14.6-11.4-23.8-4.5-9.3-8.1-17-8.1-17.2 0-.2-4.9-10.6-11-23-6-12.5-11-22.9-11-23.1 0-.1-3.3-7.2-7.4-15.6-4.1-8.4-9-18.7-10.9-22.8-3.3-7.1-8-16.9-19.5-41-10.9-22.9-16.6-34.9-20.7-43.5-6.1-12.8-18.2-38.1-20.9-43.7-1.2-2.6-2.5-4.5-2.8-4.2-.3.3-.5-.1-.4-.8 0-.7-.3-1.5-.7-1.8-.8-.5-2.7 2.7-10.2 16-1.4 2.5-3.5 6.1-4.6 8-1.2 1.9-9.6 16.3-18.7 32s-17.3 29.8-18.3 31.5c-1.1 1.6-2.2 3.7-2.6 4.5-.7 1.5-7.5 13.2-9.3 16-.6.8-1.3 2.2-1.7 3-.4.8-4.8 8.5-9.9 17.1-5 8.7-9.4 16.3-9.8 17-.4.8-1.2 2.3-1.9 3.4-1.5 2.5-12.5 21.4-15.3 26.3-1.1 2.1-7.8 13.6-14.8 25.7-7.1 12.1-13.6 23.3-14.6 25-2.3 4.1-94.4 163-109.5 189-6.7 11.5-16.1 27.9-21 36.3-4.9 8.4-9.3 15.6-9.8 15.9-.6.3-2 .7-3.1.8-1.2.2-3.7.5-5.6.8-1.9.3-5.7.9-8.5 1.3-2.7.3-5.9.8-7 1-1.1.2-7.4 1.3-14 2.4-19.3 3.2-24.7 4.2-40.6 7.6-6.3 1.3-12.4 2.6-13.5 2.8-3.8.8-12.1 2.9-20.9 5.3-31.6 8.7-51.5 18.6-56.4 28.1-2.5 4.8-.2 11.5 5.9 16.9 3.8 3.4 21.2 11.7 33 15.7 14 4.7 46.8 13 59.2 15 2.1.3 5.7 1 8 1.5 5.2 1.2 43.2 7.5 54.3 9.1 4.4.6 9.1 1.3 10.5 1.5 8.1 1.1 11 1.5 15 2 2.5.4 5.6.8 7 1 1.4.2 7 .9 12.5 1.5 11.3 1.3 15.1 1.7 20.4 2.4 2 .3 6.8.8 10.6 1.1 3.9.4 7.7.9 8.7 1 .9.2 5.3.6 9.8 1 4.5.4 9 .8 9.9 1 1 .2 5.5.6 10.2 1 4.6.3 10 .8 11.9 1 1.9.2 6.9.7 11 1 4.1.3 9.1.8 11 1 3.3.4 9.8.9 26 2 3.6.3 9.2.7 12.5 1 14.4 1.2 28.3 2.1 43 3 5 .3 12.2.7 16 1 8.1.6 24.6 1.5 54 3 22 1.1 27.9 1.4 43.7 2 8.6.4 19.2.8 23.5 1 7.2.4 34.2 1.2 62.3 2 96.8 2.8 287 2.8 377 0 60.4-1.8 78.9-2.6 129.5-5 33.1-1.6 81.5-4.6 98.5-6 3-.3 8.7-.7 12.5-.9 19.4-1.4 24.3-1.7 27.5-2.1 1.9-.2 7.3-.7 12-1 4.7-.4 10.3-.8 12.5-1.1 2.2-.2 6.9-.6 10.5-.9 3.6-.3 8.3-.7 10.5-.9 2.2-.2 7.2-.7 11-1.1 3.9-.3 8.1-.8 9.5-1 1.4-.2 5.7-.6 9.5-1 3.9-.3 12.4-1.2 19-2s14.3-1.7 17-2c2.8-.3 6.6-.8 8.5-1 1.9-.3 5.7-.7 8.3-1 2.7-.3 7.6-.9 11-1.4 3.4-.6 8.2-1.3 10.7-1.6 2.5-.3 5.6-.8 7-1 1.4-.2 4.5-.7 7-1 2.5-.3 7-1 10-1.5s6.9-1.1 8.5-1.4c45.9-6.9 92.1-18.1 114.5-27.7 50.4-21.5 24.6-44.9-71-64.3-19.1-3.9-49.9-9.2-64.5-11.1-6.2-.8-10.2-1.4-13.5-2-1.4-.3-4.7-.7-7.5-1-8.3-.9-11.7-1.4-12-1.7-.2-.2-2.2-7.3-4.4-15.8-2.1-8.5-5.6-21.8-7.6-29.5-2.1-7.7-4.1-15.6-4.6-17.5-.4-1.9-2-8-3.4-13.5-1.5-5.5-2.8-10.7-3-11.5-.2-.8-1.5-5.8-2.9-11-4.3-16.3-22.8-87.4-23.1-89-.2-.8-1.2-4.9-2.3-9-1.2-4.1-5.2-19.7-9.1-34.5-3.8-14.9-8.6-33-10.5-40.4-1.9-7.4-4.1-14-4.8-14.7-1.3-1.2-82.6-60-95.8-69.3-3.6-2.5-6.9-4.9-7.5-5.4-.5-.4-10-7.3-21-15.2-11-7.9-21.8-15.7-24-17.3-2.2-1.6-16.1-11.7-31-22.4-33.4-24.1-118.5-85.4-139.9-100.8-8.7-6.3-22.9-16.5-31.5-22.7-8.6-6.2-16.6-12-17.8-12.9-1.3-.9-6.2-4.5-11-8-4.9-3.5-9.2-6.7-9.8-7.1-.5-.4-6.6-4.8-13.5-9.7-16.9-12.1-51.3-36.9-52.5-37.9-7.4-6-29-20.5-29.8-20-.5.3-.7.1-.3-.5.3-.6.2-1.3-.4-1.7-.5-.3-2.2 2-3.6 5.2zM278.8 1145.5c-.2.1-5.7.5-12.2.9-6.5.4-12.2.8-12.5 1-.4.3-2.7.7-5.1 1.1-24.5 3.6-51.4 15.4-71 31.2-29.5 23.8-47.3 53-55.1 90.3-3.2 15.1-3.3 46.7-.3 63.9 2.3 13.2 8.5 31.4 14.4 42.2 2.2 3.9 4 7.4 4 7.6 0 .9 6.6 9.9 12.7 17.4 23.6 28.9 57 48.1 93.8 53.9 15.4 2.5 32.8 3 47.5 1.6 35.2-3.4 67.5-19.6 94.1-47.1l4.9-5-4.4-4.5c-2.4-2.5-9.8-10-16.3-16.8l-11.9-12.4-5 4.4c-14.2 12.7-29.5 22.4-42.7 26.9-12.6 4.3-23 5.7-39.6 5.4-12.1-.3-16.2-.8-24.1-2.9-39.7-11.1-69.7-45.2-76-86.6-1-6.6-.7-32.1.4-37.5.4-1.7.9-4.4 1.2-6 2.2-10.7 9.3-26.4 16.2-35.7 25.5-34.6 70.1-50 116.2-40.3 16.2 3.4 33.5 12.3 46.5 24 5.3 4.7 11.2 9.5 11.7 9.5.4 0 24.8-26.5 29.7-32.2l2.3-2.8-7.7-7.5c-7.6-7.4-22.2-19-27.3-21.6-1.5-.8-2.9-1.6-3.2-1.9-.5-.6-16.9-8.5-20.5-10-7.9-3.2-17.6-5.8-28.5-7.6-1.9-.3-3.8-.8-4.1-1-.3-.2-5.3-.6-11-.9-5.7-.4-11.9-.8-13.6-.9-1.8-.2-3.4-.2-3.5-.1zM1770.7 1145.6c-.1.1-4.5.4-9.7.8-11.5.8-14.1 1.2-24.8 3.7-29.1 6.7-53.7 20.8-75.4 43-24 24.6-36.7 50.7-41.9 86.1-1.9 12.9-1.6 39.7.6 50.9.3 1.3 1 5.1 1.6 8.4.6 3.3 2.6 10.7 4.5 16.5 14.3 43.3 49.8 78.7 94.2 93.9 21.2 7.3 46.1 9.9 73.7 7.8 9.2-.7 10.3-.9 21.5-2.8 16-2.8 38.7-11.4 53.3-20.3 5.9-3.6 19.2-14.3 23.5-19l3.9-4.2-.1-51.4-.1-51.5h-50l-.3 41.6-.2 41.6-9.3 4.6c-13.6 6.8-25.4 10.2-43.7 12.6-6.9.9-30.4.7-35.5-.3-1.6-.3-4.5-.8-6.3-1.1-16.5-2.8-35.9-13.4-50-27.4-20.7-20.5-30.4-46.4-29.6-79.5.3-14.8 1.2-20.9 5.1-33.1 12-38.3 47.6-66.3 88.9-70.1 11.2-1 32.6-.4 38.4 1.1.3.1 2.5.5 5 .9 12.3 2.3 26.2 8.6 38.8 17.8 4.6 3.3 8.4 5.8 8.6 5.7 1.5-2.1 21.8-31.3 23.8-34.4l2.8-4-3.3-2.8c-6.3-5.4-20.4-14.4-29.7-18.9-13.9-6.8-30.2-11.7-47-14.2-6.4-.9-30.6-2.5-31.3-2zM5 1303.5V1454h50.7v-301H5v150.5zM456.2 1303.5V1454h216.4l-.1-23.8v-23.7l-82-.2c-45.1-.1-82.3-.2-82.7-.2-.5-.1-.8-18-.8-40v-39.9l2.3-.3c1.2-.2 33.6-.4 72-.3H651v-45.1H507.5l-.3-39.7-.2-39.8 80.2-.2 80.2-.3.1-23.8V1153H456.2v150.5zM737.9 1155.2c-.1 2.9-.1 294.7 0 297.1.1 1.8 3.3 1.8 77.4 1.4 42.4-.2 78.7-.7 80.5-1 1.8-.3 5.1-.9 7.3-1.2 19-2.8 37.8-11.1 49.3-21.6 7-6.4 16-19.7 19.6-29.2 10.8-27.8 5.9-59.4-12.3-79.2-9.4-10.4-19.9-16.9-34.7-21.5l-8.5-2.7 3.6-1.2c6.4-2.1 18.3-10.1 24.4-16.5 7.6-7.9 11.9-16.3 15.2-30.1.3-1.1.6-7.6.8-14.5.4-14.3-1.7-24.6-7.3-35.7-13.3-26.6-30.8-37.5-72.2-44.9-1.9-.4-34.9-.9-73.2-1.1l-69.8-.4-.1 2.3zm136.1 46.2c9.5 1.9 18.8 5.9 23.5 10.3 7.3 6.5 10.4 15.7 10.1 29.5-.2 8.8-.6 11-2.8 15.4-2.8 5.3-8.6 11.2-13.9 13.9-12.1 6.3-20.8 7.3-64.6 7.4-35.1.2-37.3.1-37.4-1.6-.1-1-.2-18.6-.3-39.1l-.1-37.3 41 .4c22.6.2 42.6.7 44.5 1.1zm7.5 124.6c22.6 3.3 35.2 10.6 41.3 23.9 2.3 4.9 2.6 6.8 2.5 15.6-.1 10.8-.1 10.6-2.6 18.1-1.8 5.2-7.2 11.9-11.9 14.8-4.4 2.6-12.7 5.4-21.3 7-6.5 1.2-16.7 1.5-54.5 1.3l-46.5-.2v-40c-.1-22 .1-40.3.3-40.8.5-1.1 84.6-.8 92.7.3zM1041.7 1301.7c.1 81.9.2 149.6.2 150.5.1 1.7 5.9 1.8 108.1 1.8h108v-4.5c0-2.5.1-11 .1-19s-.1-16.7-.1-19.4v-4.9h-80.2c-44.2 0-81.4-.1-82.8-.1l-2.5-.1v-39.7c0-21.9.3-40 .6-40.3.4-.3 32.8-.5 72.1-.4l71.4.1v-22.4c0-14.7-.4-22.3-1.1-22.4-.5-.1-32.5-.3-71-.4-38.5-.1-70.4-.3-71-.4-.6-.1-1-14-1-39.6V1201H1253v-48h-211.5l.2 148.7zM1323.7 1153.7c-.2.4-.4 68.2-.4 150.5V1454h50.7v-101h3.3c8.6-.1 60.4-.1 61.9-.1 1 .1 5.4 5.2 10.8 12.8 4.9 7.1 9.6 13.7 10.4 14.8 2.6 3.5 49 69 50.6 71.3l1.5 2.3 32.1-.3 32.1-.3-18.4-25.5c-10.1-14-19.5-27.2-20.9-29.3-1.3-2-3.1-4.5-3.9-5.5-2.6-3.1-33.7-46.6-34.1-47.7-.3-.6 1.9-1.9 4.8-2.9 29.1-10.3 47.4-29.7 54.9-58.1 1.1-3.9 2.2-9.3 2.5-12 .4-2.8.8-5.3 1.1-5.7.6-1.1.5-28.8-.2-33.3-4.4-29.7-14.3-47.6-33.5-60.4-12.7-8.5-32.7-15.1-53.5-17.6-2.7-.4-6.6-.9-8.5-1.2-5.9-.9-142.7-1.5-143.3-.6zm140.8 46.7c17.4 3 23.5 4.9 30.7 9.8 6 4.1 10.1 9.7 12.7 17.5 2.6 7.6 3.1 11.4 3.2 23 .1 18.9-5 33.5-14.7 42.1-6.1 5.4-18.2 10.3-29.3 11.8-12.9 1.7-20.7 2-54.9 2.2l-38.2.1v-108.1l43.8.5c24 .3 45.1.8 46.7 1.1zM190.2 1552.9c-9.6 3.3-14.5 9.9-14.4 19.2.1 10.9 5.2 16.8 17.9 20.6 3.7 1.2 9.4 2.9 12.6 3.9 6.3 1.8 9.7 5.1 9.7 9.1 0 7.2-7.9 11-18.8 8.9-3.4-.7-10.8-4.2-14.8-7.2-2.1-1.4-2.4-1.3-5.8 2.9-2 2.4-3.6 4.7-3.6 5 0 .3 2.4 2.1 5.3 4 14.1 9.3 33.7 9.9 43.4 1.4 9.1-8 9.7-21.8 1.4-29.7-3-2.9-11.2-6.9-15.6-7.6-4.9-.8-13.7-4-15.9-5.7-2.5-2.1-3.1-4.1-2.7-9.3.2-3.5 6.9-6.2 13.9-5.8 5.7.4 7.7 1 14.2 4.4l3.4 1.7 2.9-3.9c1.6-2.2 2.6-4.6 2.3-5.3-.6-1.7-7.3-5.2-13-6.9-6.5-2-16.4-1.8-22.4.3zM970.2 1552.1c-8.7 2.1-20.2 11.1-23.8 18.7-6.5 13.8-4.8 31.6 4.2 42 7.6 8.9 16.6 13.2 28.4 13.7 8.8.3 15.5-1.4 22.2-5.7 25.2-16 23-53.4-4-66.1-5-2.3-7.9-3-14.5-3.3-4.5-.2-10.1.1-12.5.7zm21.6 12.8c9.4 4.8 14.8 14.8 14 26-1.1 14.6-11.1 24.2-25.3 24.3-10.4.1-19.6-6.2-23.8-16.4-2.3-5.4-1.7-17.1 1-22.3 6.5-12.4 22.2-17.7 34.1-11.6zM279.1 1553c-.4.3-.8 16.8-.8 36.7l.1 36.3h12.2v-72.8l-5.4-.4c-3-.2-5.7-.1-6.1.2zM346.7 1552.8c-1.6.3-1.7 3.5-1.7 36.8v36.4h12l.1-3.3c0-1.7.1-14.4.1-28-.1-13.7.2-24.6.5-24.4.3.3 6 11.5 12.7 24.9l12.1 24.3h6.9l12.2-24.3c6.7-13.3 12.4-24.5 12.7-24.9.4-.3.6 5.7.6 13.3v28.1l.1 14.3h12v-73l-5-.1c-2.7-.1-6.6-.1-8.5-.1-1.9 0-4 0-4.5.1-.9.1-12.8 23.8-20 39.8-2.1 4.7-4 6.8-4 4.4 0-.5-4.3-9.7-9.5-20.5s-9.5-20.1-9.5-20.5c0-2.2-3.6-3.4-10.4-3.5-4-.1-8 0-8.9.2zM482.7 1553c-1 .4-1.2 8.3-1.2 36.7l-.1 36.3h12.4l-.1-9.6c-.1-5.3.1-10.1.5-10.7.4-.7 4.2-1.2 10-1.3 16.5-.2 22.7-2.2 28.6-8.8 7.6-8.7 6.8-27.1-1.6-35.9-4.5-4.8-13.3-6.7-31.4-7-8.7-.1-16.4 0-17.1.3zm36.9 13.3c3.8 1.9 5.7 6.3 5.7 12.5 0 10.7-4.8 14.1-20.7 14.5-10 .2-10.6.1-10.7-1.8-.1-2.8-.1-24.7 0-26.4.1-2 21.4-1.1 25.7 1.2zM588.7 1552.8c-1.6.3-1.7 3.6-1.7 36.8v36.4h22.5c19.3 0 22.5-.2 22.6-1.5.1-.8.1-3.1.1-5s0-3.9-.1-4.4c-.1-.4-7.5-.8-16.6-.7l-16.5.1v-30.8c0-16.9-.3-30.7-.7-30.8-3.3-.3-8.3-.3-9.6-.1zM681.7 1552.8c-.9.2-1.7.9-1.7 1.5-.1 3.3-.1 62.9-.1 66.9l.1 4.8h52l.1-2.5c.5-10 2.4-9.1-19.8-9.1h-19.8l-.1-9.7-.2-9.7 3.7-.1c2 0 9.8-.1 17.4-.1H727v-5.4c0-3.6-.4-5.4-1.2-5.5-.7 0-8.5-.2-17.3-.2l-16-.2-.3-9.5-.3-9.6h38.6l.3-5.9.3-6h-23.9c-13.1 0-24.6.1-25.5.3zM839.5 1553c-.2.3-.4 16.9-.4 36.8v36.3l19.6-.1c25.9-.2 31.7-2 36.2-11.4 4.8-9.7 1.7-20.1-7.3-24.5-3.2-1.6-4.4-2.7-3.5-3 9.8-3.9 12.1-19.8 4.1-27.6-3.9-3.7-4.8-4.2-10-5.5-5.1-1.2-38.1-2-38.7-1zm35.6 12.6c4.8 2.4 6.5 6.5 4.7 11.6-1.5 4.3-6.2 5.8-18 5.8h-10.3l.1-9.3c.1-5 .2-9.3.3-9.3.8-.9 21.2.2 23.2 1.2zm4.1 30.7c6.6 2.8 7.5 11.6 1.6 16-2.3 1.7-4.4 2-15.1 2.2-6.9.1-12.9 0-13.4-.4-1.1-.8-1.1-18.4 0-19.2 1.6-1.2 23.5 0 26.9 1.4zM1072 1553l-3.5.5v72.5h12.5v-36.5c0-20.1-.3-36.5-.7-36.6-3.6-.4-5.3-.4-8.3.1zM1136 1552.8c-.6.2-1 13.4-1 36.8v36.4l22.8-.2 22.7-.3v-11l-15-.2c-8.2-.1-15.7-.2-16.5-.2-1.4-.1-1.6-3.8-1.5-30.6 0-29.8 0-30.5-2-30.6-1.1 0-3.5-.1-5.3-.2-1.7-.1-3.7-.1-4.2.1zM1230.9 1552.8l-2.6.3v36.5l-.1 36.4h52.3l.1-5.5c0-3-.2-5.6-.5-5.7-.3 0-9.1-.2-19.4-.3-13-.1-19.1-.5-19.6-1.3-.5-.9-.7-15.8-.2-18.2.1-.3 7.7-.4 17.1-.3 12.8.2 17-.1 17.1-1 0-.7.2-2.7.3-4.5.1-1.9-.3-3.9-.9-4.5-.8-.8-5.9-1.1-16.1-1-8.2.1-15.6 0-16.4-.3-1.3-.3-1.6-2-1.4-9.2.1-4.8.2-9 .3-9.3.1-.3 8.7-.5 19.3-.5h19.2l-.1-4.7c-.1-2.6-.2-5.3-.2-6-.1-.9-5.4-1.2-22.9-1.2-12.5 0-23.9.1-25.3.3zM1333 1552.8l-2.5.3v72.4l6.3.3 6.2.3-.1-6.3c0-3.5-.1-9.1 0-12.5l.1-6.2 8 .2 7.9.2 8.7 12.3 8.6 12.2h7.4c4.1 0 7.4-.3 7.4-.6s-4-6.2-9-13.2l-9-12.7 4.5-2.3c9.3-4.7 13.3-17 9.7-29.7-2.2-7.7-9.7-13-20-14.1-5.5-.6-30.6-1-34.2-.6zm36.2 12.4c4.4 1.6 6.5 5.4 6.4 11.8-.2 7.4-2.4 10.5-8.4 11.9-4.9 1.2-22.8 1.8-23.8.8-.5-.5-.7-9.6-.5-21l.1-4.8 11.7.2c6.4.1 13 .6 14.5 1.1zM1444.5 1552.8l-4.1.3.1 36.4v36.5h12.3l.1-6.8v-10.7l.1-4 10.8-.1c24.1-.2 33.4-7.7 32.9-26.7-.3-8.5-2.3-14.3-6.3-17.8-3.4-3-10.2-5.9-15.5-6.5-5.7-.7-24.1-1.1-30.4-.6zm34.9 14.3c8.2 5.6 6.4 21.4-2.9 24.6-4 1.4-21.9 2.2-23.1 1.1-.5-.5-.9-21.8-.5-27.7.1-1.1 2.2-1.3 11.6-.9 9.9.5 12 .9 14.9 2.9zM1545.9 1554v68.7l.1 3.3h44.8l.4-3.3c.2-1.8.1-4.4-.2-5.8l-.6-2.4-15.9-.1-16-.1-.5-30.8-.5-30.8-5.8-.1c-4.4-.1-5.7.2-5.8 1.4zM1662.5 1552.8c-1.5.2-2.9 2.5-5.4 8.5-1.9 4.5-4.7 10.9-6.2 14.2-2.3 5-19.8 45-21.6 49.3-.4 1 1 1.2 6.1 1l6.7-.3 3.5-8.1 3.5-8h18.1c15 .1 18.2.4 18.9 1.6.5.8 2.2 4.5 3.9 8.2l2.9 6.8h13.1l-1.4-3.3c-1.5-3.6-12-27.6-14.1-32.2-.7-1.7-4.6-10.4-8.6-19.5s-7.6-16.9-8-17.4c-.8-.9-7.6-1.4-11.4-.8zm8.7 23.7c2.5 5.2 8.8 20.4 8.8 21 0 .3-5.8.5-12.9.5h-13l2.5-5.8c1.4-3.1 3.4-7.5 4.4-9.7 1-2.2 2.8-6.4 4.1-9.4 2.2-5.1 2.3-5.3 3.3-3 .5 1.3 1.8 4.2 2.8 6.4zM1739.4 1552.8c-1.8.3-2 .9-1.6 5.5.2 2.8.5 5.3.7 5.5.2.2 5 .4 10.8.3l10.3-.2-.1 29.8c0 16.4.1 30.4.3 31 .3.9 2.5 1.3 6.3 1.3h5.9v-62h22v-5.5c0-3.7-.4-5.5-1.2-5.6-5-.2-51.7-.3-53.4-.1zM1842.6 1553.6c-.8.7-1.1 12.3-1.1 36.5l.1 35.4 26.2.3 26.2.2v-11.6h-20l-20 .1V1595l6.3-.1h28.5v-5.4c-.1-4.9-.3-5.5-2.2-5.6-1.2-.1-9-.1-17.3-.1l-15.3-.1V1564.4h38.5l.1-5.7c.1-3.1-.1-5.7-.5-5.8-.3 0-11.4-.1-24.5-.2-16.1-.1-24.3.2-25 .9zM30.1 1557.2c-1 2.4-6.7 15.3-12.6 28.8-5.9 13.5-12.3 28-14.1 32.2L.1 1626h13l2.9-6.8c1.7-3.7 3.4-7.4 3.9-8.2.7-1.2 4-1.5 18.9-1.6l18.1-.1 3.5 8.1 3.5 8.1 6.6.3c3.9.2 6.6-.1 6.3-.6-.1-.6-7.3-17-15.8-36.6l-15.5-35.5-6.8-.1h-6.8l-1.8 4.2zm15.3 26.1l6.5 14.7h-26l.7-2.3c.3-1.2 2.1-5.4 3.9-9.2 1.7-3.9 4.2-9.6 5.5-12.7 1.3-3.2 2.5-5.6 2.6-5.5.2.2 3.2 6.9 6.8 15z"/></svg>