<?xml version="1.0" encoding="utf-8"?>
<!-- Generator: Adobe Illustrator 19.2.0, SVG Export Plug-In . SVG Version: 6.00 Build 0)  -->
<svg version="1.1" xmlns="http://www.w3.org/2000/svg" xmlns:xlink="http://www.w3.org/1999/xlink" x="0px" y="0px"
	 viewBox="0 0 425.5 304.5" style="enable-background:new 0 0 425.5 304.5;" xml:space="preserve">
<style type="text/css">
	.st0{fill-rule:evenodd;clip-rule:evenodd;fill:#B1DEE4;}
	.st1{fill-rule:evenodd;clip-rule:evenodd;fill:#49C0D8;}
	.st2{fill-rule:evenodd;clip-rule:evenodd;fill:#1DAFC8;}
	.st3{fill-rule:evenodd;clip-rule:evenodd;fill:#019BC1;}
	.st4{fill-rule:evenodd;clip-rule:evenodd;fill:#93D7EA;}
	.st5{fill:#1A1A1A;}
	.st6{fill:#808080;}
</style>
<g id="Guias_para_prancheta">
</g>
<g id="Camada_1">
	<path class="st0" d="M209.7,175.4c91.7,0,166.4-8.4,166.4-18.7c0-10.3-74.8-18.7-166.4-18.7c-91.7,0-166.4,8.4-166.4,18.7
		C43.3,167.1,118,175.4,209.7,175.4z"/>
	<polygon class="st1" points="168.9,110.3 137.8,45 149.8,111.1 	"/>
	<polygon class="st2" points="152.9,158.6 72.1,158.6 149.8,111.1 	"/>
	<polygon class="st2" points="279.4,158.6 279.4,136.5 168.9,110.3 152.9,158.6 	"/>
	<polygon class="st3" points="279.4,158.6 279.4,136.5 318.8,83.4 338.3,158.6 	"/>
	<polygon class="st4" points="149.8,111.1 137.8,45 72,158.6 	"/>
	<polygon class="st4" points="279.4,136.5 214.6,8.2 168.9,110.3 	"/>
	<polygon class="st1" points="318.8,83.4 214.6,8.2 279.4,136.5 	"/>
	<polygon class="st3" points="168.9,110.3 149.8,111.1 152.9,158.6 	"/>
	<g>
		<path class="st5" d="M10.3,199h10.8v64.2H10.3V199z"/>
		<path class="st5" d="M68.3,253.4c3.7,0,7-0.6,9.6-1.9c2.7-1.3,5.5-3.3,8.5-6l7,7.2c-6.8,7.5-15.1,11.3-24.8,11.3
			c-9.7,0-17.8-3.1-24.2-9.4c-6.4-6.2-9.6-14.2-9.6-23.7c0-9.6,3.3-17.5,9.8-23.9c6.5-6.4,14.8-9.6,24.7-9.6c10,0,18.3,3.7,25,11
			l-6.9,7.5c-3.1-2.9-6-5-8.7-6.2c-2.7-1.2-5.9-1.7-9.6-1.7c-6.5,0-11.9,2.1-16.4,6.3c-4.4,4.2-6.6,9.6-6.6,16.1
			c0,6.5,2.2,12,6.6,16.4C57.1,251.3,62.3,253.4,68.3,253.4z"/>
		<path class="st5" d="M151.8,199v10.2h-34.3v17h30.8v9.6h-30.8v17.2h35.4v10.2h-46.2V199H151.8z"/>
		<path class="st5" d="M194.9,263.3h-28.1V199h25c4.3,0,8.1,0.5,11.3,1.6c3.2,1,5.5,2.5,7,4.2c2.9,3.3,4.4,7,4.4,11.2
			c0,5-1.6,8.8-4.8,11.2c-1.2,0.9-2,1.4-2.4,1.6c-0.4,0.2-1.2,0.6-2.3,1.1c4,0.9,7.2,2.7,9.5,5.4c2.4,2.7,3.5,6.1,3.5,10.2
			c0,4.5-1.5,8.4-4.6,11.9C209.8,261.3,203.6,263.3,194.9,263.3z M177.6,225.7h13.8c7.8,0,11.8-2.7,11.8-8c0-3.1-1-5.3-2.8-6.6
			c-1.9-1.3-4.8-2-8.8-2h-13.9V225.7z M177.6,253.3h17c4,0,7-0.6,9.1-1.9c2.1-1.3,3.2-3.6,3.2-7.1c0-5.7-4.6-8.5-13.7-8.5h-15.6
			V253.3z"/>
		<path class="st5" d="M276.8,199v10.2h-34.3v17h30.8v9.6h-30.8v17.2h35.4v10.2h-46.2V199H276.8z"/>
		<path class="st5" d="M343,219.9c0,10.6-4.6,17.3-13.9,20l16.8,23.3h-13.8l-15.3-21.6h-14.2v21.6h-10.8V199h23.9
			c9.8,0,16.8,1.7,21,5C340.9,207.3,343,212.6,343,219.9z M328.6,229c2.2-1.9,3.3-4.9,3.3-9.1c0-4.2-1.1-7.1-3.4-8.6
			c-2.3-1.6-6.3-2.3-12.1-2.3h-13.8v23h13.5C322.2,231.8,326.4,230.9,328.6,229z"/>
		<path class="st5" d="M403.1,232H414v22c-6.1,6.7-14.7,10-26,10c-9.5,0-17.4-3.1-23.8-9.4c-6.4-6.2-9.6-14.2-9.6-23.7
			c0-9.6,3.3-17.5,9.8-23.9c6.5-6.4,14.4-9.6,23.7-9.6c9.3,0,16.9,2.7,23.1,8.1l-5.8,8.3c-2.5-2.1-5-3.6-7.6-4.5
			c-2.5-0.8-5.5-1.2-8.9-1.2c-6.5,0-11.9,2.1-16.4,6.3c-4.4,4.2-6.6,9.7-6.6,16.5c0,6.8,2.1,12.3,6.4,16.5c4.3,4.1,9.5,6.2,15.6,6.2
			c6.1,0,11.2-1.3,15.3-4V232z"/>
	</g>
	<g>
		<path class="st6" d="M13.4,292.7l-1.5,3.4H9.2l6.6-14.9h2.7l6.6,14.9h-2.7l-1.5-3.4H13.4z M19.8,290.4l-2.7-6.2l-2.7,6.2H19.8z"/>
		<path class="st6" d="M58.5,283.2c-0.7,0-1.3,0.1-1.8,0.4c-0.5,0.3-0.7,0.8-0.7,1.4c0,0.6,0.2,1.1,0.7,1.4c0.5,0.3,1.5,0.7,3,1
			c1.5,0.4,2.7,0.9,3.5,1.6c0.8,0.7,1.2,1.7,1.2,3c0,1.3-0.5,2.4-1.5,3.2c-1,0.8-2.3,1.2-3.9,1.2c-2.3,0-4.4-0.8-6.2-2.4l1.6-1.9
			c1.5,1.3,3.1,2,4.7,2c0.8,0,1.5-0.2,1.9-0.5c0.5-0.3,0.7-0.8,0.7-1.4c0-0.6-0.2-1-0.7-1.3c-0.4-0.3-1.2-0.6-2.3-0.9
			c-1.1-0.3-1.9-0.5-2.5-0.7c-0.6-0.2-1.1-0.5-1.5-0.9c-0.9-0.7-1.3-1.7-1.3-3.1c0-1.4,0.5-2.4,1.5-3.2c1-0.7,2.2-1.1,3.7-1.1
			c1,0,1.9,0.2,2.8,0.5c0.9,0.3,1.8,0.8,2.4,1.3l-1.3,1.9c-0.4-0.4-1-0.7-1.8-1C59.9,283.3,59.2,283.2,58.5,283.2z"/>
		<path class="st6" d="M74.4,281.2h2.5v14.9h-2.5V281.2z"/>
		<path class="st6" d="M90.6,296.1h-2.5v-14.9H92l4.5,9.4l4.5-9.4h3.9v14.9h-2.5v-11.7l-5.2,10.4h-1.4l-5.2-10.4V296.1z"/>
		<path class="st6" d="M126.1,282.5c1,0.9,1.6,2.2,1.6,4c0,1.8-0.5,3.1-1.6,4c-1.1,0.8-2.7,1.3-4.9,1.3h-2.6v4.4H116v-14.9h5.1
			C123.4,281.2,125.1,281.6,126.1,282.5z M124.3,288.7c0.5-0.5,0.8-1.3,0.8-2.3c0-1-0.3-1.8-1-2.2c-0.6-0.4-1.6-0.6-3-0.6h-2.6v6
			h2.9C122.9,289.5,123.8,289.2,124.3,288.7z"/>
		<path class="st6" d="M137.6,296.1v-14.9h2.5v12.5h6.8v2.4H137.6z"/>
		<path class="st6" d="M167.2,281.2v2.4h-8v4h7.2v2.2h-7.2v4h8.2v2.4h-10.7v-14.9H167.2z"/>
		<path class="st6" d="M204.1,296.1h-6.5v-14.9h5.8c1,0,1.9,0.1,2.6,0.4c0.7,0.2,1.3,0.6,1.6,1c0.7,0.8,1,1.6,1,2.6
			c0,1.2-0.4,2-1.1,2.6c-0.3,0.2-0.5,0.3-0.6,0.4c-0.1,0-0.3,0.1-0.5,0.2c0.9,0.2,1.7,0.6,2.2,1.2c0.5,0.6,0.8,1.4,0.8,2.4
			c0,1-0.4,2-1.1,2.8C207.6,295.7,206.1,296.1,204.1,296.1z M200.1,287.4h3.2c1.8,0,2.7-0.6,2.7-1.9c0-0.7-0.2-1.2-0.7-1.5
			c-0.4-0.3-1.1-0.5-2.1-0.5h-3.2V287.4z M200.1,293.8h4c0.9,0,1.6-0.1,2.1-0.4c0.5-0.3,0.7-0.8,0.7-1.7c0-1.3-1.1-2-3.2-2h-3.6
			V293.8z"/>
		<path class="st6" d="M232.1,294.1c-1.5,1.5-3.4,2.2-5.6,2.2c-2.2,0-4.1-0.7-5.6-2.2c-1.5-1.5-2.3-3.3-2.3-5.5c0-2.2,0.8-4,2.3-5.5
			c1.5-1.5,3.4-2.2,5.6-2.2c2.2,0,4.1,0.7,5.6,2.2c1.5,1.5,2.3,3.3,2.3,5.5C234.4,290.7,233.6,292.6,232.1,294.1z M230.3,284.7
			c-1-1.1-2.3-1.6-3.7-1.6c-1.5,0-2.7,0.5-3.7,1.6c-1,1.1-1.5,2.3-1.5,3.8c0,1.5,0.5,2.8,1.5,3.8c1,1.1,2.3,1.6,3.7,1.6
			c1.5,0,2.7-0.5,3.7-1.6c1-1.1,1.5-2.3,1.5-3.8C231.8,287,231.3,285.8,230.3,284.7z"/>
		<path class="st6" d="M244.6,281.2h2.5v14.9h-2.5V281.2z"/>
		<path class="st6" d="M258.2,296.1v-14.9h2.5v12.5h6.8v2.4H258.2z"/>
		<path class="st6" d="M287.8,281.2v2.4h-8v4h7.2v2.2h-7.2v4h8.2v2.4h-10.7v-14.9H287.8z"/>
		<path class="st6" d="M310.2,286c0,2.5-1.1,4-3.2,4.7l3.9,5.4h-3.2l-3.6-5h-3.3v5h-2.5v-14.9h5.6c2.3,0,3.9,0.4,4.9,1.2
			C309.7,283.1,310.2,284.3,310.2,286z M306.8,288.1c0.5-0.4,0.8-1.1,0.8-2.1c0-1-0.3-1.6-0.8-2c-0.5-0.4-1.5-0.5-2.8-0.5h-3.2v5.3
			h3.1C305.3,288.8,306.3,288.6,306.8,288.1z"/>
		<path class="st6" d="M330.9,282.5c1,0.9,1.6,2.2,1.6,4c0,1.8-0.5,3.1-1.6,4c-1.1,0.8-2.7,1.3-4.9,1.3h-2.6v4.4h-2.5v-14.9h5.1
			C328.2,281.2,329.8,281.6,330.9,282.5z M329.1,288.7c0.5-0.5,0.8-1.3,0.8-2.3c0-1-0.3-1.8-1-2.2c-0.6-0.4-1.6-0.6-3-0.6h-2.6v6
			h2.9C327.6,289.5,328.6,289.2,329.1,288.7z"/>
		<path class="st6" d="M342.4,296.1v-14.9h2.5v12.5h6.8v2.4H342.4z"/>
		<path class="st6" d="M363.6,292.7l-1.5,3.4h-2.7l6.6-14.9h2.7l6.6,14.9h-2.7l-1.5-3.4H363.6z M370.1,290.4l-2.7-6.2l-2.7,6.2
			H370.1z"/>
		<path class="st6" d="M388.8,283.5v12.6h-2.5v-12.6h-4.5v-2.3h11.6v2.3H388.8z"/>
		<path class="st6" d="M413.5,281.2v2.4h-8v4h7.2v2.2h-7.2v4h8.2v2.4h-10.7v-14.9H413.5z"/>
	</g>
</g>
</svg>
