<?xml version="1.0" standalone="no"?>
<!DOCTYPE svg PUBLIC "-//W3C//DTD SVG 20010904//EN"
 "http://www.w3.org/TR/2001/REC-SVG-20010904/DTD/svg10.dtd">
<svg version="1.0" xmlns="http://www.w3.org/2000/svg"
 width="1896.000000pt" height="1896.000000pt" viewBox="0 0 1896.000000 1896.000000"
 preserveAspectRatio="xMidYMid meet">
<metadata>
Created by potrace 1.11, written by Peter Selinger 2001-2013
</metadata>
<g transform="translate(0.000000,1896.000000) scale(0.100000,-0.100000)"
fill="#000000" stroke="none">
<path d="M9594 16193 c-14 -32 -52 -116 -84 -188 -49 -111 -210 -471 -293
-655 -13 -30 -44 -98 -67 -150 -23 -52 -50 -113 -60 -135 -10 -22 -74 -166
-143 -320 -68 -154 -155 -347 -192 -430 -37 -82 -75 -168 -85 -190 -10 -22
-92 -206 -183 -410 -187 -420 -212 -476 -234 -525 -9 -19 -84 -186 -166 -370
-82 -184 -178 -400 -214 -480 -36 -80 -137 -307 -225 -505 -88 -198 -163 -363
-167 -367 -4 -4 -7 0 -8 10 -1 9 -38 94 -83 187 -45 94 -96 202 -115 240 -18
39 -70 146 -114 238 -45 93 -81 170 -81 172 0 2 -49 106 -110 230 -60 125
-110 229 -110 231 0 1 -33 72 -74 156 -41 84 -90 187 -109 228 -33 71 -80 169
-195 410 -109 229 -166 349 -207 435 -61 128 -182 381 -209 437 -12 26 -25 45
-28 42 -3 -3 -5 1 -4 8 0 7 -3 15 -7 18 -8 5 -27 -27 -102 -160 -14 -25 -35
-61 -46 -80 -12 -19 -96 -163 -187 -320 -91 -157 -173 -298 -183 -315 -11 -16
-22 -37 -26 -45 -7 -15 -75 -132 -93 -160 -6 -8 -13 -22 -17 -30 -4 -8 -48
-85 -99 -171 -50 -87 -94 -163 -98 -170 -4 -8 -12 -23 -19 -34 -15 -25 -125
-214 -153 -263 -11 -21 -78 -136 -148 -257 -71 -121 -136 -233 -146 -250 -23
-41 -944 -1630 -1095 -1890 -67 -115 -161 -279 -210 -363 -49 -84 -93 -156
-98 -159 -6 -3 -20 -7 -31 -8 -12 -2 -37 -5 -56 -8 -19 -3 -57 -9 -85 -13 -27
-3 -59 -8 -70 -10 -11 -2 -74 -13 -140 -24 -193 -32 -247 -42 -406 -76 -63
-13 -124 -26 -135 -28 -38 -8 -121 -29 -209 -53 -316 -87 -515 -186 -564 -281
-25 -48 -2 -115 59 -169 38 -34 212 -117 330 -157 140 -47 468 -130 592 -150
21 -3 57 -10 80 -15 52 -12 432 -75 543 -91 44 -6 91 -13 105 -15 81 -11 110
-15 150 -20 25 -4 56 -8 70 -10 14 -2 70 -9 125 -15 113 -13 151 -17 204 -24
20 -3 68 -8 106 -11 39 -4 77 -9 87 -10 9 -2 53 -6 98 -10 45 -4 90 -8 99 -10
10 -2 55 -6 102 -10 46 -3 100 -8 119 -10 19 -2 69 -7 110 -10 41 -3 91 -8
110 -10 33 -4 98 -9 260 -20 36 -3 92 -7 125 -10 144 -12 283 -21 430 -30 50
-3 122 -7 160 -10 81 -6 246 -15 540 -30 220 -11 279 -14 437 -20 86 -4 192
-8 235 -10 72 -4 342 -12 623 -20 968 -28 2870 -28 3770 0 604 18 789 26 1295
50 331 16 815 46 985 60 30 3 87 7 125 9 194 14 243 17 275 21 19 2 73 7 120
10 47 4 103 8 125 11 22 2 69 6 105 9 36 3 83 7 105 9 22 2 72 7 110 11 39 3
81 8 95 10 14 2 57 6 95 10 39 3 124 12 190 20 66 8 143 17 170 20 28 3 66 8
85 10 19 3 57 7 83 10 27 3 76 9 110 14 34 6 82 13 107 16 25 3 56 8 70 10 14
2 45 7 70 10 25 3 70 10 100 15 30 5 69 11 85 14 459 69 921 181 1145 277 504
215 246 449 -710 643 -191 39 -499 92 -645 111 -62 8 -102 14 -135 20 -14 3
-47 7 -75 10 -83 9 -117 14 -120 17 -2 2 -22 73 -44 158 -21 85 -56 218 -76
295 -21 77 -41 156 -46 175 -4 19 -20 80 -34 135 -15 55 -28 107 -30 115 -2 8
-15 58 -29 110 -43 163 -228 874 -231 890 -2 8 -12 49 -23 90 -12 41 -52 197
-91 345 -38 149 -86 330 -105 404 -19 74 -41 140 -48 147 -13 12 -826 600
-958 693 -36 25 -69 49 -75 54 -5 4 -100 73 -210 152 -110 79 -218 157 -240
173 -22 16 -161 117 -310 224 -334 241 -1185 854 -1399 1008 -87 63 -229 165
-315 227 -86 62 -166 120 -178 129 -13 9 -62 45 -110 80 -49 35 -92 67 -98 71
-5 4 -66 48 -135 97 -169 121 -513 369 -525 379 -74 60 -290 205 -298 200 -5
-3 -7 -1 -3 5 3 6 2 13 -4 17 -5 3 -22 -20 -36 -52z"/>
<path d="M2788 7505 c-2 -1 -57 -5 -122 -9 -65 -4 -122 -8 -125 -10 -4 -3 -27
-7 -51 -11 -245 -36 -514 -154 -710 -312 -295 -238 -473 -530 -551 -903 -32
-151 -33 -467 -3 -639 23 -132 85 -314 144 -422 22 -39 40 -74 40 -76 0 -9 66
-99 127 -174 236 -289 570 -481 938 -539 154 -25 328 -30 475 -16 352 34 675
196 941 471 l49 50 -44 45 c-24 25 -98 100 -163 168 l-119 124 -50 -44 c-142
-127 -295 -224 -427 -269 -126 -43 -230 -57 -396 -54 -121 3 -162 8 -241 29
-397 111 -697 452 -760 866 -10 66 -7 321 4 375 4 17 9 44 12 60 22 107 93
264 162 357 255 346 701 500 1162 403 162 -34 335 -123 465 -240 53 -47 112
-95 117 -95 4 0 248 265 297 322 l23 28 -77 75 c-76 74 -222 190 -273 216 -15
8 -29 16 -32 19 -5 6 -169 85 -205 100 -79 32 -176 58 -285 76 -19 3 -38 8
-41 10 -3 2 -53 6 -110 9 -57 4 -119 8 -136 9 -18 2 -34 2 -35 1z"/>
<path d="M17707 7504 c-1 -1 -45 -4 -97 -8 -115 -8 -141 -12 -248 -37 -291
-67 -537 -208 -754 -430 -240 -246 -367 -507 -419 -861 -19 -129 -16 -397 6
-509 3 -13 10 -51 16 -84 6 -33 26 -107 45 -165 143 -433 498 -787 942 -939
212 -73 461 -99 737 -78 92 7 103 9 215 28 160 28 387 114 533 203 59 36 192
143 235 190 l39 42 -1 514 -1 515 -250 0 -250 0 -3 -416 -2 -416 -93 -46
c-136 -68 -254 -102 -437 -126 -69 -9 -304 -7 -355 3 -16 3 -45 8 -63 11 -165
28 -359 134 -500 274 -207 205 -304 464 -296 795 3 148 12 209 51 331 120 383
476 663 889 701 112 10 326 4 384 -11 3 -1 25 -5 50 -9 123 -23 262 -86 388
-178 46 -33 84 -58 86 -57 15 21 218 313 238 344 l28 40 -33 28 c-63 54 -204
144 -297 189 -139 68 -302 117 -470 142 -64 9 -306 25 -313 20z"/>
<path d="M50 5925 l0 -1505 253 0 254 0 0 1505 0 1505 -254 0 -253 0 0 -1505z"/>
<path d="M4562 5925 l0 -1505 1082 0 1082 0 -1 238 0 237 -820 2 c-451 1 -823
2 -827 2 -5 1 -8 180 -8 400 l0 399 23 3 c12 2 336 4 720 3 l697 0 0 225 0
226 -717 0 -718 0 -3 397 -2 398 802 2 802 3 1 238 0 237 -1057 0 -1056 0 0
-1505z"/>
<path d="M7379 7408 c-1 -29 -1 -2947 0 -2971 1 -18 33 -18 774 -14 424 2 787
7 805 10 18 3 51 9 73 12 190 28 378 111 493 216 70 64 160 197 196 292 108
278 59 594 -123 792 -94 104 -199 169 -347 215 l-85 27 36 12 c64 21 183 101
244 165 76 79 119 163 152 301 3 11 6 76 8 145 4 143 -17 246 -73 357 -133
266 -308 375 -722 449 -19 4 -349 9 -732 11 l-698 4 -1 -23z m1361 -462 c95
-19 188 -59 235 -103 73 -65 104 -157 101 -295 -2 -88 -6 -110 -28 -154 -28
-53 -86 -112 -139 -139 -121 -63 -208 -73 -646 -74 -351 -2 -373 -1 -374 16
-1 10 -2 186 -3 391 l-1 373 410 -4 c226 -2 426 -7 445 -11z m75 -1246 c226
-33 352 -106 413 -239 23 -49 26 -68 25 -156 -1 -108 -1 -106 -26 -181 -18
-52 -72 -119 -119 -148 -44 -26 -127 -54 -213 -70 -65 -12 -167 -15 -545 -13
l-465 2 0 400 c-1 220 1 403 3 408 5 11 846 8 927 -3z"/>
<path d="M10417 5943 c1 -819 2 -1496 2 -1505 1 -17 59 -18 1081 -18 l1080 0
0 45 c0 25 1 110 1 190 0 80 -1 167 -1 194 l0 49 -802 0 c-442 0 -814 1 -828
1 l-25 1 0 397 c0 219 3 400 6 403 4 3 328 5 721 4 l714 -1 0 224 c0 147 -4
223 -11 224 -5 1 -325 3 -710 4 -385 1 -704 3 -710 4 -6 1 -10 140 -10 396 l0
395 803 0 802 0 0 240 0 240 -1057 0 -1058 0 2 -1487z"/>
<path d="M13237 7423 c-2 -4 -4 -682 -4 -1505 l0 -1498 254 0 253 0 0 505 0
505 33 0 c86 1 604 1 619 1 10 -1 54 -52 108 -128 49 -71 96 -137 104 -148 26
-35 490 -690 506 -713 l15 -23 321 3 321 3 -184 255 c-101 140 -195 272 -209
293 -13 20 -31 45 -39 55 -26 31 -337 466 -341 477 -3 6 19 19 48 29 291 103
474 297 549 581 11 39 22 93 25 120 4 28 8 53 11 57 6 11 5 288 -2 333 -44
297 -143 476 -335 604 -127 85 -327 151 -535 176 -27 4 -66 9 -85 12 -59 9
-1427 15 -1433 6z m1408 -467 c174 -30 235 -49 307 -98 60 -41 101 -97 127
-175 26 -76 31 -114 32 -230 1 -189 -50 -335 -147 -421 -61 -54 -182 -103
-293 -118 -129 -17 -207 -20 -549 -22 l-382 -1 0 540 0 541 438 -5 c240 -3
451 -8 467 -11z"/>
<path d="M1902 3431 c-96 -33 -145 -99 -144 -192 1 -109 52 -168 179 -206 37
-12 94 -29 126 -39 63 -18 97 -51 97 -91 0 -72 -79 -110 -188 -89 -34 7 -108
42 -148 72 -21 14 -24 13 -58 -29 -20 -24 -36 -47 -36 -50 0 -3 24 -21 53 -40
141 -93 337 -99 434 -14 91 80 97 218 14 297 -30 29 -112 69 -156 76 -49 8
-137 40 -159 57 -25 21 -31 41 -27 93 2 35 69 62 139 58 57 -4 77 -10 142 -44
l34 -17 29 39 c16 22 26 46 23 53 -6 17 -73 52 -130 69 -65 20 -164 18 -224
-3z"/>
<path d="M9702 3439 c-87 -21 -202 -111 -238 -187 -65 -138 -48 -316 42 -420
76 -89 166 -132 284 -137 88 -3 155 14 222 57 252 160 230 534 -40 661 -50 23
-79 30 -145 33 -45 2 -101 -1 -125 -7z m216 -128 c94 -48 148 -148 140 -260
-11 -146 -111 -242 -253 -243 -104 -1 -196 62 -238 164 -23 54 -17 171 10 223
65 124 222 177 341 116z"/>
<path d="M2791 3430 c-4 -3 -8 -168 -8 -367 l1 -363 61 0 61 0 0 364 0 364
-54 4 c-30 2 -57 1 -61 -2z"/>
<path d="M3467 3432 c-16 -3 -17 -35 -17 -368 l0 -364 60 0 60 0 1 33 c0 17 1
144 1 280 -1 137 2 246 5 244 3 -3 60 -115 127 -249 l121 -243 34 0 35 0 122
243 c67 133 124 245 127 249 4 3 6 -57 6 -133 0 -77 0 -203 0 -281 l1 -143 60
0 60 0 0 365 0 365 -50 1 c-27 1 -66 1 -85 1 -19 0 -40 0 -45 -1 -9 -1 -128
-238 -200 -398 -21 -47 -40 -68 -40 -44 0 5 -43 97 -95 205 -52 108 -95 201
-95 205 0 22 -36 34 -104 35 -40 1 -80 0 -89 -2z"/>
<path d="M4827 3430 c-10 -4 -12 -83 -12 -367 l-1 -363 62 0 62 0 -1 96 c-1
53 1 101 5 107 4 7 42 12 100 13 165 2 227 22 286 88 76 87 68 271 -16 359
-45 48 -133 67 -314 70 -87 1 -164 0 -171 -3z m369 -133 c38 -19 57 -63 57
-125 0 -107 -48 -141 -207 -145 -100 -2 -106 -1 -107 18 -1 28 -1 247 0 264 1
20 214 11 257 -12z"/>
<path d="M5887 3432 c-16 -3 -17 -36 -17 -368 l0 -364 225 0 c193 0 225 2 226
15 1 8 1 31 1 50 0 19 0 39 -1 44 -1 4 -75 8 -166 7 l-165 -1 0 308 c0 169 -3
307 -7 308 -33 3 -83 3 -96 1z"/>
<path d="M6817 3432 c-9 -2 -17 -9 -17 -15 -1 -33 -1 -629 -1 -669 l1 -48 260
0 260 0 1 25 c5 100 24 91 -198 91 l-198 0 -1 97 -2 97 37 1 c20 0 98 1 174 1
l137 0 0 54 c0 36 -4 54 -12 55 -7 0 -85 2 -173 2 l-160 2 -3 95 -3 96 193 0
193 0 3 59 3 60 -239 0 c-131 0 -246 -1 -255 -3z"/>
<path d="M8395 3430 c-2 -3 -4 -169 -4 -368 l0 -363 196 1 c259 2 317 20 362
114 48 97 17 201 -73 245 -32 16 -44 27 -35 30 98 39 121 198 41 276 -39 37
-48 42 -100 55 -51 12 -381 20 -387 10z m356 -126 c48 -24 65 -65 47 -116 -15
-43 -62 -58 -180 -58 l-103 0 1 93 c1 50 2 93 3 93 8 9 212 -2 232 -12z m41
-307 c66 -28 75 -116 16 -160 -23 -17 -44 -20 -151 -22 -69 -1 -129 0 -134 4
-11 8 -11 184 0 192 16 12 235 0 269 -14z"/>
<path d="M10720 3430 l-35 -5 0 -362 0 -363 63 0 62 0 0 365 c0 201 -3 365 -7
366 -36 4 -53 4 -83 -1z"/>
<path d="M11360 3432 c-6 -2 -10 -134 -10 -368 l0 -364 228 2 227 3 0 55 0 55
-150 2 c-82 1 -157 2 -165 2 -14 1 -16 38 -15 306 0 298 0 305 -20 306 -11 0
-35 1 -53 2 -17 1 -37 1 -42 -1z"/>
<path d="M12309 3432 l-26 -3 0 -365 -1 -364 262 0 261 0 1 55 c0 30 -2 56 -5
57 -3 0 -91 2 -194 3 -130 1 -191 5 -196 13 -5 9 -7 158 -2 182 1 3 77 4 171
3 128 -2 170 1 171 10 0 7 2 27 3 45 1 19 -3 39 -9 45 -8 8 -59 11 -161 10
-82 -1 -156 0 -164 3 -13 3 -16 20 -14 92 1 48 2 90 3 93 1 3 87 5 193 5 l192
0 -1 47 c-1 26 -2 53 -2 60 -1 9 -54 12 -229 12 -125 0 -239 -1 -253 -3z"/>
<path d="M13330 3432 l-25 -3 0 -362 0 -362 63 -3 62 -3 -1 63 c0 35 -1 91 0
125 l1 62 80 -2 79 -2 87 -123 86 -122 74 0 c41 0 74 3 74 6 0 3 -40 62 -90
132 l-90 127 45 23 c93 47 133 170 97 297 -22 77 -97 130 -200 141 -55 6 -306
10 -342 6z m362 -124 c44 -16 65 -54 64 -118 -2 -74 -24 -105 -84 -119 -49
-12 -228 -18 -238 -8 -5 5 -7 96 -5 210 l1 48 117 -2 c64 -1 130 -6 145 -11z"/>
<path d="M14445 3432 l-41 -3 1 -364 0 -365 62 0 61 0 1 68 c0 37 0 85 0 107
l1 40 108 1 c241 2 334 77 329 267 -3 85 -23 143 -63 178 -34 30 -102 59 -155
65 -57 7 -241 11 -304 6z m349 -143 c82 -56 64 -214 -29 -246 -40 -14 -219
-22 -231 -11 -5 5 -9 218 -5 277 1 11 22 13 116 9 99 -5 120 -9 149 -29z"/>
<path d="M15459 3420 c0 -21 0 -648 0 -687 l1 -33 224 0 224 0 4 33 c2 18 1
44 -2 58 l-6 24 -159 1 -160 1 -5 308 -5 308 -58 1 c-44 1 -57 -2 -58 -14z"/>
<path d="M16625 3432 c-15 -2 -29 -25 -54 -85 -19 -45 -47 -109 -62 -142 -23
-50 -198 -450 -216 -493 -4 -10 10 -12 61 -10 l67 3 35 81 35 80 181 0 c150
-1 182 -4 189 -16 5 -8 22 -45 39 -82 l29 -68 66 0 65 0 -14 33 c-15 36 -120
276 -141 322 -7 17 -46 104 -86 195 -40 91 -76 169 -80 174 -8 9 -76 14 -114
8z m87 -237 c25 -52 88 -204 88 -210 0 -3 -58 -5 -129 -5 l-130 0 25 58 c14
31 34 75 44 97 10 22 28 64 41 94 22 51 23 53 33 30 5 -13 18 -42 28 -64z"/>
<path d="M17394 3432 c-18 -3 -20 -9 -16 -55 2 -28 5 -53 7 -55 2 -2 50 -4
108 -3 l103 2 -1 -298 c0 -164 1 -304 3 -310 3 -9 25 -13 63 -13 l59 0 0 310
0 310 110 0 110 0 0 55 c0 37 -4 55 -12 56 -50 2 -517 3 -534 1z"/>
<path d="M18426 3424 c-8 -7 -11 -123 -11 -365 l1 -354 262 -3 262 -2 0 58 0
58 -200 0 -200 -1 0 98 0 97 63 1 c34 0 112 0 174 0 l111 0 0 54 c-1 49 -3 55
-22 56 -12 1 -90 1 -173 1 l-153 1 0 96 0 97 193 0 192 0 1 57 c1 31 -1 57 -5
58 -3 0 -114 1 -245 2 -161 1 -243 -2 -250 -9z"/>
<path d="M301 3388 c-10 -24 -67 -153 -126 -288 -59 -135 -123 -280 -141 -322
l-33 -78 65 0 65 0 29 68 c17 37 34 74 39 82 7 12 40 15 189 16 l181 1 35 -81
35 -81 66 -3 c39 -2 66 1 63 6 -1 6 -73 170 -158 366 l-155 355 -68 1 -68 0
-18 -42z m153 -261 l65 -147 -130 0 -130 0 7 23 c3 12 21 54 39 92 17 39 42
96 55 127 13 32 25 56 26 55 2 -2 32 -69 68 -150z"/>
</g>
</svg>
